<?xml version="1.0" encoding="UTF-8"?>
<svg xmlns="http://www.w3.org/2000/svg" width="818" height="266" viewBox="0 0 818 266" fill="none">
  <path d="M91.68 235.7H74.56V253.71H69.18V212.92H94.45V217.32H74.56V231.3H91.68V235.7Z" fill="#52DAC6"></path>
  <path d="M98.12 238.28C98.12 235.31 98.7 232.64 99.87 230.27C101.04 227.9 102.66 226.07 104.74 224.78C106.82 223.49 109.2 222.85 111.87 222.85C116 222.85 119.34 224.28 121.89 227.14C124.44 230 125.71 233.8 125.71 238.54V238.9C125.71 241.85 125.15 244.5 124.02 246.84C122.89 249.18 121.27 251.01 119.17 252.32C117.07 253.63 114.65 254.28 111.93 254.28C107.82 254.28 104.49 252.85 101.94 249.99C99.39 247.13 98.12 243.35 98.12 238.64V238.28ZM103.33 238.9C103.33 242.26 104.11 244.96 105.67 247C107.23 249.04 109.32 250.05 111.93 250.05C114.54 250.05 116.66 249.02 118.21 246.95C119.76 244.89 120.54 242 120.54 238.28C120.54 234.96 119.75 232.26 118.17 230.2C116.59 228.14 114.5 227.1 111.88 227.1C109.26 227.1 107.26 228.12 105.69 230.15C104.12 232.19 103.34 235.1 103.34 238.89L103.33 238.9Z" fill="#52DAC6"></path>
  <path d="M146.87 228.05C146.09 227.92 145.24 227.85 144.32 227.85C140.92 227.85 138.61 229.3 137.4 232.19V253.71H132.22V223.4H137.26L137.34 226.9C139.04 224.19 141.45 222.84 144.57 222.84C145.58 222.84 146.34 222.97 146.87 223.23V228.05Z" fill="#52DAC6"></path>
  <path d="M175.75 246.12L182.81 223.4H188.36L176.17 258.39C174.28 263.43 171.29 265.95 167.18 265.95L166.2 265.87L164.27 265.51V261.31L165.67 261.42C167.43 261.42 168.79 261.06 169.77 260.36C170.75 259.66 171.56 258.35 172.19 256.47L173.34 253.39L162.53 223.41H168.19L175.75 246.13V246.12Z" fill="#52DAC6"></path>
  <path d="M191.19 238.28C191.19 235.31 191.77 232.64 192.94 230.27C194.11 227.9 195.73 226.07 197.81 224.78C199.89 223.49 202.27 222.85 204.94 222.85C209.07 222.85 212.41 224.28 214.96 227.14C217.51 230 218.78 233.8 218.78 238.54V238.9C218.78 241.85 218.22 244.5 217.09 246.84C215.96 249.18 214.34 251.01 212.24 252.32C210.14 253.63 207.72 254.28 205 254.28C200.89 254.28 197.56 252.85 195.01 249.99C192.46 247.13 191.19 243.35 191.19 238.64V238.28ZM196.4 238.9C196.4 242.26 197.18 244.96 198.74 247C200.3 249.04 202.39 250.05 205 250.05C207.61 250.05 209.73 249.02 211.28 246.95C212.83 244.89 213.61 242 213.61 238.28C213.61 234.96 212.82 232.26 211.24 230.2C209.66 228.14 207.57 227.1 204.95 227.1C202.33 227.1 200.33 228.12 198.76 230.15C197.19 232.19 196.41 235.1 196.41 238.89L196.4 238.9Z" fill="#52DAC6"></path>
  <path d="M244 250.72C241.98 253.09 239.02 254.28 235.12 254.28C231.89 254.28 229.43 253.34 227.74 251.46C226.05 249.58 225.2 246.81 225.18 243.13V223.41H230.36V242.99C230.36 247.58 232.23 249.88 235.96 249.88C239.92 249.88 242.55 248.4 243.86 245.45V223.4H249.04V253.71H244.11L244 250.71V250.72Z" fill="#52DAC6"></path>
  <path d="M256.74 261.84L253.8 259.82C255.56 257.37 256.47 254.85 256.55 252.26V247.58H261.62V251.64C261.62 253.53 261.16 255.41 260.23 257.3C259.31 259.19 258.14 260.7 256.74 261.84Z" fill="#52DAC6"></path>
  <path d="M301.09 253.71C300.79 253.11 300.55 252.05 300.36 250.52C297.95 253.02 295.07 254.27 291.73 254.27C288.74 254.27 286.29 253.43 284.38 251.73C282.47 250.04 281.51 247.9 281.51 245.3C281.51 242.14 282.71 239.69 285.11 237.95C287.51 236.2 290.89 235.33 295.24 235.33H300.28V232.95C300.28 231.14 299.74 229.7 298.66 228.62C297.58 227.55 295.98 227.01 293.87 227.01C292.02 227.01 290.47 227.48 289.22 228.41C287.97 229.34 287.34 230.47 287.34 231.8H282.13C282.13 230.29 282.67 228.83 283.74 227.42C284.81 226.01 286.27 224.89 288.11 224.07C289.95 223.25 291.97 222.84 294.18 222.84C297.67 222.84 300.41 223.71 302.39 225.46C304.37 227.21 305.4 229.61 305.47 232.67V246.62C305.47 249.4 305.82 251.62 306.53 253.26V253.71H301.1H301.09ZM292.49 249.76C294.11 249.76 295.66 249.34 297.11 248.5C298.56 247.66 299.62 246.57 300.28 245.22V239H296.22C289.87 239 286.69 240.86 286.69 244.58C286.69 246.2 287.23 247.48 288.32 248.39C289.4 249.3 290.79 249.76 292.49 249.76Z" fill="#52DAC6"></path>
  <path d="M318.49 223.4L318.66 227.21C320.98 224.3 324 222.84 327.74 222.84C334.15 222.84 337.38 226.45 337.43 233.68V253.71H332.25V233.65C332.23 231.46 331.73 229.85 330.75 228.8C329.77 227.75 328.24 227.23 326.17 227.23C324.49 227.23 323.01 227.68 321.74 228.57C320.47 229.47 319.48 230.64 318.77 232.1V253.7H313.59V223.39H318.49V223.4Z" fill="#52DAC6"></path>
  <path d="M355.16 246.12L362.22 223.4H367.77L355.58 258.39C353.69 263.43 350.7 265.95 346.59 265.95L345.61 265.87L343.68 265.51V261.31L345.08 261.42C346.84 261.42 348.2 261.06 349.18 260.36C350.16 259.66 350.97 258.35 351.6 256.47L352.75 253.39L341.94 223.41H347.6L355.16 246.13V246.12Z" fill="#52DAC6"></path>
  <path d="M379.42 216.06V223.4H385.08V227.41H379.42V246.23C379.42 247.45 379.67 248.36 380.18 248.96C380.68 249.57 381.54 249.87 382.76 249.87C383.36 249.87 384.18 249.76 385.23 249.53V253.71C383.87 254.08 382.54 254.27 381.25 254.27C378.93 254.27 377.19 253.57 376.01 252.17C374.83 250.77 374.25 248.78 374.25 246.2V227.4H368.73V223.39H374.25V216.05H379.43L379.42 216.06Z" fill="#52DAC6"></path>
  <path d="M391.16 215.36C391.16 214.52 391.42 213.81 391.93 213.23C392.44 212.65 393.2 212.36 394.21 212.36C395.22 212.36 395.98 212.65 396.51 213.23C397.03 213.81 397.29 214.52 397.29 215.36C397.29 216.2 397.03 216.9 396.51 217.46C395.99 218.02 395.22 218.3 394.21 218.3C393.2 218.3 392.44 218.02 391.93 217.46C391.42 216.9 391.16 216.2 391.16 215.36ZM396.76 253.71H391.58V223.4H396.76V253.71Z" fill="#52DAC6"></path>
  <path d="M409.93 223.4L410.07 226.76C412.29 224.15 415.29 222.84 419.06 222.84C423.3 222.84 426.18 224.46 427.72 227.71C428.73 226.25 430.04 225.08 431.66 224.18C433.28 223.28 435.18 222.84 437.39 222.84C444.04 222.84 447.42 226.36 447.53 233.4V253.71H442.35V233.71C442.35 231.54 441.85 229.92 440.87 228.85C439.88 227.78 438.22 227.24 435.88 227.24C433.96 227.24 432.36 227.81 431.09 228.96C429.82 230.11 429.08 231.65 428.88 233.6V253.72H423.67V233.86C423.67 229.45 421.51 227.25 417.2 227.25C413.8 227.25 411.48 228.7 410.22 231.59V253.72H405.04V223.41H409.94L409.93 223.4Z" fill="#52DAC6"></path>
  <path d="M467.92 254.28C463.81 254.28 460.47 252.93 457.89 250.23C455.31 247.53 454.02 243.92 454.02 239.4V238.45C454.02 235.44 454.59 232.76 455.74 230.4C456.89 228.04 458.49 226.19 460.56 224.85C462.62 223.51 464.86 222.85 467.27 222.85C471.21 222.85 474.27 224.15 476.46 226.74C478.65 229.34 479.74 233.05 479.74 237.89V240.05H459.2C459.27 243.04 460.15 245.45 461.82 247.29C463.49 249.13 465.62 250.05 468.19 250.05C470.02 250.05 471.57 249.68 472.84 248.93C474.11 248.18 475.22 247.19 476.17 245.96L479.34 248.43C476.8 252.33 472.99 254.29 467.91 254.29L467.92 254.28ZM467.28 227.11C465.19 227.11 463.43 227.87 462.01 229.39C460.59 230.91 459.71 233.05 459.38 235.79H474.56V235.4C474.41 232.77 473.7 230.73 472.43 229.28C471.16 227.83 469.44 227.11 467.28 227.11Z" fill="#52DAC6"></path>
  <path d="M485.57 261.84L482.63 259.82C484.39 257.37 485.3 254.85 485.38 252.26V247.58H490.45V251.64C490.45 253.53 489.99 255.41 489.06 257.3C488.14 259.19 486.97 260.7 485.57 261.84Z" fill="#52DAC6"></path>
  <path d="M529.92 253.71C529.62 253.11 529.38 252.05 529.19 250.52C526.78 253.02 523.9 254.27 520.56 254.27C517.57 254.27 515.12 253.43 513.21 251.73C511.3 250.04 510.34 247.9 510.34 245.3C510.34 242.14 511.54 239.69 513.94 237.95C516.34 236.2 519.72 235.33 524.07 235.33H529.11V232.95C529.11 231.14 528.57 229.7 527.49 228.62C526.41 227.55 524.81 227.01 522.7 227.01C520.85 227.01 519.3 227.48 518.05 228.41C516.8 229.34 516.17 230.47 516.17 231.8H510.96C510.96 230.29 511.5 228.83 512.57 227.42C513.64 226.01 515.1 224.89 516.94 224.07C518.78 223.25 520.8 222.84 523.01 222.84C526.5 222.84 529.24 223.71 531.22 225.46C533.2 227.21 534.23 229.61 534.3 232.67V246.62C534.3 249.4 534.65 251.62 535.36 253.26V253.71H529.93H529.92ZM521.32 249.76C522.94 249.76 524.49 249.34 525.94 248.5C527.39 247.66 528.45 246.57 529.11 245.22V239H525.05C518.7 239 515.52 240.86 515.52 244.58C515.52 246.2 516.06 247.48 517.15 248.39C518.23 249.3 519.62 249.76 521.32 249.76Z" fill="#52DAC6"></path>
  <path d="M547.32 223.4L547.49 227.21C549.81 224.3 552.83 222.84 556.57 222.84C562.98 222.84 566.21 226.45 566.26 233.68V253.71H561.08V233.65C561.06 231.46 560.56 229.85 559.58 228.8C558.6 227.75 557.07 227.23 555 227.23C553.32 227.23 551.84 227.68 550.57 228.57C549.3 229.46 548.31 230.64 547.6 232.1V253.7H542.42V223.39H547.32V223.4Z" fill="#52DAC6"></path>
  <path d="M583.99 246.12L591.05 223.4H596.6L584.41 258.39C582.52 263.43 579.53 265.95 575.42 265.95L574.44 265.87L572.51 265.51V261.31L573.91 261.42C575.67 261.42 577.03 261.06 578.01 260.36C578.99 259.66 579.8 258.35 580.43 256.47L581.58 253.39L570.77 223.41H576.43L583.99 246.13V246.12Z" fill="#52DAC6"></path>
  <path d="M628.06 246.57L633.89 223.4H639.07L630.25 253.71H626.05L618.68 230.74L611.51 253.71H607.31L598.51 223.4H603.66L609.63 246.09L616.69 223.4H620.86L628.06 246.57Z" fill="#52DAC6"></path>
  <path d="M649.52 227.07C651.82 224.25 654.8 222.84 658.49 222.84C664.9 222.84 668.13 226.45 668.18 233.68V253.71H663V233.65C662.98 231.46 662.48 229.85 661.5 228.8C660.52 227.75 658.99 227.23 656.92 227.23C655.24 227.23 653.76 227.68 652.49 228.57C651.22 229.46 650.23 230.64 649.52 232.1V253.7H644.34V210.67H649.52V227.06V227.07Z" fill="#52DAC6"></path>
  <path d="M688.51 254.28C684.4 254.28 681.06 252.93 678.48 250.23C675.9 247.53 674.61 243.92 674.61 239.4V238.45C674.61 235.44 675.18 232.76 676.33 230.4C677.48 228.04 679.08 226.19 681.15 224.85C683.21 223.51 685.45 222.85 687.86 222.85C691.8 222.85 694.86 224.15 697.05 226.74C699.24 229.34 700.33 233.05 700.33 237.89V240.05H679.79C679.86 243.04 680.74 245.45 682.41 247.29C684.08 249.13 686.21 250.05 688.78 250.05C690.61 250.05 692.16 249.68 693.43 248.93C694.7 248.18 695.81 247.19 696.76 245.96L699.93 248.43C697.39 252.33 693.58 254.29 688.5 254.29L688.51 254.28ZM687.87 227.11C685.78 227.11 684.02 227.87 682.6 229.39C681.18 230.91 680.3 233.05 679.97 235.79H695.15V235.4C695 232.77 694.29 230.73 693.02 229.28C691.75 227.83 690.03 227.11 687.87 227.11Z" fill="#52DAC6"></path>
  <path d="M720.98 228.05C720.2 227.92 719.35 227.85 718.43 227.85C715.03 227.85 712.72 229.3 711.51 232.19V253.71H706.33V223.4H711.37L711.45 226.9C713.15 224.19 715.56 222.84 718.68 222.84C719.69 222.84 720.45 222.97 720.98 223.23V228.05Z" fill="#52DAC6"></path>
  <path d="M737.79 254.28C733.68 254.28 730.34 252.93 727.76 250.23C725.18 247.53 723.89 243.92 723.89 239.4V238.45C723.89 235.44 724.46 232.76 725.61 230.4C726.76 228.04 728.36 226.19 730.43 224.85C732.49 223.51 734.73 222.85 737.14 222.85C741.08 222.85 744.14 224.15 746.33 226.74C748.52 229.34 749.61 233.05 749.61 237.89V240.05H729.07C729.14 243.04 730.02 245.45 731.69 247.29C733.36 249.13 735.49 250.05 738.06 250.05C739.89 250.05 741.44 249.68 742.71 248.93C743.98 248.18 745.09 247.19 746.04 245.96L749.21 248.43C746.67 252.33 742.86 254.29 737.78 254.29L737.79 254.28ZM737.15 227.11C735.06 227.11 733.3 227.87 731.88 229.39C730.46 230.91 729.58 233.05 729.25 235.79H744.43V235.4C744.28 232.77 743.57 230.73 742.3 229.28C741.03 227.83 739.31 227.11 737.15 227.11Z" fill="#52DAC6"></path>
  <path d="M139.35 141.2V0.780197H170.41V110.31C170.41 127.36 156.57 141.2 139.52 141.2H139.35Z" fill="#52DAC6"></path>
  <path d="M525.17 141.19C525.27 141.19 525.38 141.19 525.48 141.19C542.52 141.19 556.34 127.37 556.34 110.33V94.6403L614.4 0.780273H577.88L540.81 60.7103L503.74 0.780273H467.22C486.57 32.0703 505.93 63.3503 525.28 94.6403L525.48 141.19" fill="#52DAC6"></path>
  <path d="M255.07 0.0400269C216.11 -0.209973 184.62 31.84 184.62 70.8V179.29C202.03 179.29 216.15 165.17 216.15 147.76V128.52C227.19 135.79 240.4 140.02 254.61 140.02C293.41 140.02 325.04 107.99 324.59 69.2C324.15 31.08 293.23 0.280027 255.06 0.0400269H255.07ZM255.88 108.47C233.64 109.18 215.47 91.01 216.18 68.77C216.82 48.64 233.22 32.24 253.35 31.59C275.58 30.87 293.76 49.04 293.06 71.27C292.42 91.41 276.02 107.81 255.88 108.46V108.47Z" fill="#52DAC6"></path>
  <path d="M410.15 0.0400269C371.19 -0.209973 339.7 31.84 339.7 70.8V179.29C357.11 179.29 371.23 165.17 371.23 147.76V128.52C382.27 135.79 395.48 140.02 409.69 140.02C448.49 140.02 480.12 107.99 479.67 69.2C479.23 31.08 448.31 0.280027 410.14 0.0400269H410.15ZM410.96 108.47C388.72 109.18 370.55 91.01 371.26 68.77C371.9 48.64 388.3 32.24 408.43 31.59C430.66 30.87 448.84 49.04 448.14 71.27C447.5 91.41 431.1 107.81 410.96 108.46V108.47Z" fill="#52DAC6"></path>
  <path d="M817.8 28.7599C817.44 23.4899 815.39 18.2799 812.46 13.9199C809.32 9.28989 804.9 5.56988 799.83 3.21988C794.29 0.659879 788.7 0.369873 782.7 0.369873C778.67 0.369873 774.66 0.369863 770.63 0.359863H648.34C634.27 0.359863 622.39 9.80987 618.73 22.7099L617.69 28.3099C617.49 29.4099 617.29 30.4999 617.08 31.6099L602.71 108.82C600.79 119.78 598.87 130.75 596.94 141.71C611.54 130.75 626.15 119.78 640.74 108.82H777.59C792.46 108.82 804.87 98.2799 807.74 84.2399C810.58 69.6599 813.42 55.0699 816.25 40.4899C816.85 37.4299 817.65 34.2899 817.81 31.1499C817.85 30.3599 817.85 29.5599 817.8 28.7699V28.7599ZM647.33 63.5699L643.17 87.2999H629.62L641.32 19.9599L664.91 19.9999C672.19 19.9999 677.9 22.0199 682.07 26.0599C686.24 30.0999 688.05 35.3799 687.53 41.8699C687.03 48.4699 684.29 53.7499 679.27 57.6899C674.26 61.6299 667.87 63.5999 660.1 63.5999L647.34 63.5599L647.33 63.5699ZM722.81 87.2999L720.68 73.4299H697.18L690.24 87.2999H675.31L711.29 19.9599H723.83L736.64 87.2999H722.81ZM770.02 63.6099L765.95 87.2999H752.17L756.56 62.0899L742.59 20.0099L756.89 19.9699L765.07 50.2199L783.89 19.9699H799.44L770.02 63.6199V63.6099Z" fill="#0F0A54"></path>
  <path d="M649.09 52.3397L660.37 52.4297C664.01 52.4297 667.03 51.4897 669.44 49.6097C671.84 47.7297 673.28 45.1897 673.74 41.9797C674.2 38.7697 673.69 36.2097 672.19 34.2997C670.69 32.3897 668.48 31.3697 665.55 31.2497L652.79 31.1997L649.09 52.3397Z" fill="#0F0A54"></path>
  <path d="M702.6 62.1896H718.83L715.04 37.1196L702.6 62.1896Z" fill="#0F0A54"></path>
  <path d="M123.21 31.28C122.11 33.76 120.55 35.99 118.66 37.88L118.7 37.92L45.95 108.49H92.16C98.21 108.49 103.86 110.19 108.66 113.12C116.53 117.93 122.13 126.08 123.51 135.6C123.71 137 123.83 138.43 123.83 139.89H23.41C20.55 139.85 17.8 139.25 15.3 138.22C7.29002 134.89 1.64001 126.98 1.64001 117.74C1.64001 114.43 2.36002 111.3 3.66002 108.49C4.55002 106.54 5.72002 104.75 7.11002 103.16L9.81001 100.54L81.21 31.27H28.24C13.63 29.74 1.97001 18.29 0.140015 3.76004V0.0400391H102.97C106.03 0.0400391 108.94 0.670029 111.6 1.78003C118.16 4.56003 123.1 10.4 124.64 17.51C124.97 19.03 125.14 20.59 125.14 22.2C125.14 23.81 124.97 25.38 124.64 26.89C124.31 28.42 123.82 29.88 123.2 31.27L123.21 31.28Z" fill="#52DAC6"></path>
</svg>
